{"asset":{"version":"2.0","generator":"Blockbench 4.12.2 glTF exporter"},"scenes":[{"nodes":[8],"name":"blockbench_export"}],"scene":0,"nodes":[{"name":"body","mesh":0},{"rotation":[0.6408563820557884,0.2988362387301199,0.2988362387301198,0.6408563820557887],"translation":[1.094261144142831,0.004381549148820496,-0.18750000000000006],"name":"backright","mesh":1},{"rotation":[0.04624699618945244,-0.4662278970042295,0.7055928112895238,0.5316310262343733],"translation":[-0.1875,0.125,-0.125],"name":"midright","mesh":2},{"rotation":[0.6408563820557884,0.2988362387301199,0.2988362387301198,0.6408563820557887],"translation":[1.094261144142831,0.004381549148820496,0.1875],"name":"backleft","mesh":3},{"rotation":[-0.04624699618945244,0.4662278970042295,0.7055928112895238,0.5316310262343733],"translation":[-0.1875,0.125,0.125],"name":"midleft","mesh":4},{"rotation":[-0.1978689933940591,0.34011042017746895,0.6788577623134489,0.6199394342084588],"translation":[-0.25,0.125,0.125],"name":"frontleft","mesh":5},{"rotation":[0.1978689933940591,-0.34011042017746895,0.6788577623134489,0.6199394342084588],"translation":[-0.25,0.125,-0.125],"name":"frontright","mesh":6},{"translation":[0,0.046875,0],"name":"root","children":[0,1,2,3,4,5,6]},{"children":[7]}],"bufferViews":[{"buffer":0,"byteOffset":0,"byteLength":1248,"target":34962,"byteStride":12},{"buffer":0,"byteOffset":1248,"byteLength":1248,"target":34962,"byteStride":12},{"buffer":0,"byteOffset":2496,"byteLength":832,"target":34962,"byteStride":8},{"buffer":0,"byteOffset":3328,"byteLength":312,"target":34963},{"buffer":0,"byteOffset":3640,"byteLength":96,"target":34962,"byteStride":12},{"buffer":0,"byteOffset":3736,"byteLength":96,"target":34962,"byteStride":12},{"buffer":0,"byteOffset":3832,"byteLength":64,"target":34962,"byteStride":8},{"buffer":0,"byteOffset":3896,"byteLength":24,"target":34963},{"buffer":0,"byteOffset":3920,"byteLength":240,"target":34962,"byteStride":12},{"buffer":0,"byteOffset":4160,"byteLength":240,"target":34962,"byteStride":12},{"buffer":0,"byteOffset":4400,"byteLength":160,"target":34962,"byteStride":8},{"buffer":0,"byteOffset":4560,"byteLength":60,"target":34963},{"buffer":0,"byteOffset":4620,"byteLength":96,"target":34962,"byteStride":12},{"buffer":0,"byteOffset":4716,"byteLength":96,"target":34962,"byteStride":12},{"buffer":0,"byteOffset":4812,"byteLength":64,"target":34962,"byteStride":8},{"buffer":0,"byteOffset":4876,"byteLength":24,"target":34963},{"buffer":0,"byteOffset":4900,"byteLength":240,"target":34962,"byteStride":12},{"buffer":0,"byteOffset":5140,"byteLength":240,"target":34962,"byteStride":12},{"buffer":0,"byteOffset":5380,"byteLength":160,"target":34962,"byteStride":8},{"buffer":0,"byteOffset":5540,"byteLength":60,"target":34963},{"buffer":0,"byteOffset":5600,"byteLength":240,"target":34962,"byteStride":12},{"buffer":0,"byteOffset":5840,"byteLength":240,"target":34962,"byteStride":12},{"buffer":0,"byteOffset":6080,"byteLength":160,"target":34962,"byteStride":8},{"buffer":0,"byteOffset":6240,"byteLength":60,"target":34963},{"buffer":0,"byteOffset":6300,"byteLength":240,"target":34962,"byteStride":12},{"buffer":0,"byteOffset":6540,"byteLength":240,"target":34962,"byteStride":12},{"buffer":0,"byteOffset":6780,"byteLength":160,"target":34962,"byteStride":8},{"buffer":0,"byteOffset":6940,"byteLength":60,"target":34963}],"buffers":[{"byteLength":7000,"uri":"data:application/octet-stream;base64,"}],"accessors":[{"bufferView":0,"componentType":5126,"count":104,"max":[0.4375,0.375,0.1875],"min":[-0.5,0,-0.1875],"type":"VEC3"},{"bufferView":1,"componentType":5126,"count":104,"max":[1,1,0.996423602104187],"min":[-1,-1,-1],"type":"VEC3"},{"bufferView":2,"componentType":5126,"count":104,"max":[0.875,0.875],"min":[0,0],"type":"VEC2"},{"bufferView":3,"componentType":5123,"count":156,"max":[103],"min":[0],"type":"SCALAR"},{"bufferView":4,"componentType":5126,"count":8,"max":[0.0625,2.220446049250313e-16,0.015922563150525093],"min":[-0.6169366240501404,1.691355389077387e-17,-0.9346817135810852],"type":"VEC3"},{"bufferView":5,"componentType":5126,"count":8,"max":[1.851846321483685e-15,1,3.6010636958583157e-16],"min":[3.669843035873161e-16,1,-2.1414246250652853e-16],"type":"VEC3"},{"bufferView":6,"componentType":5126,"count":8,"max":[0.59375,0.25],"min":[0,0],"type":"VEC2"},{"bufferView":7,"componentType":5123,"count":12,"max":[7],"min":[0],"type":"SCALAR"},{"bufferView":8,"componentType":5126,"count":20,"max":[0.0625,1.8318679906315083e-15,0.0625],"min":[-0.44960325956344604,-1.0408340855860843e-15,-0.25068819522857666],"type":"VEC3"},{"bufferView":9,"componentType":5126,"count":20,"max":[6.492681182458399e-15,1,0],"min":[-5.134099097973217e-16,1,-4.7152011773700896e-15],"type":"VEC3"},{"bufferView":10,"componentType":5126,"count":20,"max":[0.3125,0.5],"min":[0.0625,0],"type":"VEC2"},{"bufferView":11,"componentType":5123,"count":30,"max":[19],"min":[0],"type":"SCALAR"},{"bufferView":12,"componentType":5126,"count":8,"max":[0.0625,2.220446049250313e-16,0.015922563150525093],"min":[-0.6169366240501404,1.691355389077387e-17,-0.9346817135810852],"type":"VEC3"},{"bufferView":13,"componentType":5126,"count":8,"max":[1.851846321483685e-15,1,3.6010636958583157e-16],"min":[3.669843035873161e-16,1,-2.1414246250652853e-16],"type":"VEC3"},{"bufferView":14,"componentType":5126,"count":8,"max":[0.59375,0.25],"min":[0,0],"type":"VEC2"},{"bufferView":15,"componentType":5123,"count":12,"max":[7],"min":[0],"type":"SCALAR"},{"bufferView":16,"componentType":5126,"count":20,"max":[0.0625,1.8318679906315083e-15,0.25068819522857666],"min":[-0.44960325956344604,-1.0408340855860843e-15,-0.0625],"type":"VEC3"},{"bufferView":17,"componentType":5126,"count":20,"max":[6.492681182458399e-15,1,4.7152011773700896e-15],"min":[-5.134099097973217e-16,1,0],"type":"VEC3"},{"bufferView":18,"componentType":5126,"count":20,"max":[0.3125,0.5],"min":[0.0625,0],"type":"VEC2"},{"bufferView":19,"componentType":5123,"count":30,"max":[19],"min":[0],"type":"SCALAR"},{"bufferView":20,"componentType":5126,"count":20,"max":[0.0625,1.8318679906315083e-15,0.25068819522857666],"min":[-0.44960325956344604,-1.0408340855860843e-15,-0.0625],"type":"VEC3"},{"bufferView":21,"componentType":5126,"count":20,"max":[6.492681182458399e-15,1,4.7152011773700896e-15],"min":[-5.134099097973217e-16,1,0],"type":"VEC3"},{"bufferView":22,"componentType":5126,"count":20,"max":[0.3125,0.5],"min":[0.0625,0],"type":"VEC2"},{"bufferView":23,"componentType":5123,"count":30,"max":[19],"min":[0],"type":"SCALAR"},{"bufferView":24,"componentType":5126,"count":20,"max":[0.0625,1.8318679906315083e-15,0.0625],"min":[-0.44960325956344604,-1.0408340855860843e-15,-0.25068819522857666],"type":"VEC3"},{"bufferView":25,"componentType":5126,"count":20,"max":[6.492681182458399e-15,1,0],"min":[-5.134099097973217e-16,1,-4.7152011773700896e-15],"type":"VEC3"},{"bufferView":26,"componentType":5126,"count":20,"max":[0.3125,0.5],"min":[0.0625,0],"type":"VEC2"},{"bufferView":27,"componentType":5123,"count":30,"max":[19],"min":[0],"type":"SCALAR"}],"materials":[{"pbrMetallicRoughness":{"metallicFactor":0,"roughnessFactor":1,"baseColorTexture":{"index":0}},"alphaMode":"MASK","alphaCutoff":0.05,"doubleSided":true},{"pbrMetallicRoughness":{"metallicFactor":0,"roughnessFactor":1,"baseColorTexture":{"index":1}},"alphaMode":"MASK","alphaCutoff":0.05,"doubleSided":true},{"pbrMetallicRoughness":{"metallicFactor":0,"roughnessFactor":1,"baseColorTexture":{"index":2}},"alphaMode":"MASK","alphaCutoff":0.05,"doubleSided":true}],"textures":[{"sampler":0,"source":0,"name":"texture"},{"sampler":1,"source":1,"name":"backleg"},{"sampler":2,"source":2,"name":"frontleg"}],"samplers":[{"magFilter":9728,"minFilter":9728,"wrapS":33071,"wrapT":33071},{"magFilter":9728,"minFilter":9728,"wrapS":33071,"wrapT":33071},{"magFilter":9728,"minFilter":9728,"wrapS":33071,"wrapT":33071}],"images":[{"mimeType":"image/png","uri":"data:image/png;base64,"},{"mimeType":"image/png","uri":"data:image/png;base64,"},{"mimeType":"image/png","uri":"data:image/png;base64,"}],"meshes":[{"primitives":[{"mode":4,"attributes":{"POSITION":0,"NORMAL":1,"TEXCOORD_0":2},"indices":3,"material":0}]},{"primitives":[{"mode":4,"attributes":{"POSITION":4,"NORMAL":5,"TEXCOORD_0":6},"indices":7,"material":1}]},{"primitives":[{"mode":4,"attributes":{"POSITION":8,"NORMAL":9,"TEXCOORD_0":10},"indices":11,"material":2}]},{"primitives":[{"mode":4,"attributes":{"POSITION":12,"NORMAL":13,"TEXCOORD_0":14},"indices":15,"material":1}]},{"primitives":[{"mode":4,"attributes":{"POSITION":16,"NORMAL":17,"TEXCOORD_0":18},"indices":19,"material":2}]},{"primitives":[{"mode":4,"attributes":{"POSITION":20,"NORMAL":21,"TEXCOORD_0":22},"indices":23,"material":2}]},{"primitives":[{"mode":4,"attributes":{"POSITION":24,"NORMAL":25,"TEXCOORD_0":26},"indices":27,"material":2}]}]}